<svg width="24" height="24" viewBox="0 0 24 24" xmlns="http://www.w3.org/2000/svg">
  <defs>
    <linearGradient id="gradient5" x1="2.12767" y1="1" x2="30.7018" y2="17.5237" gradientUnits="userSpaceOnUse">
      <stop offset="0.259336" stop-color="#FFDB6E"/>
      <stop offset="1" stop-color="#FFBC5E"/>
    </linearGradient>
  </defs>
  <path fill="url(#gradient5)" fill-rule="evenodd" d="M5 4a2 2 0 0 1 2-2h10a2 2 0 0 1 2 2v16a2 2 0 0 1-2 2H7a2 2 0 0 1-2-2V4Zm12 12V5H7v11h10Zm-5 1a1 1 0 1 0 0 2h.01a1 1 0 1 0 0-2H12Z" clip-rule="evenodd"/>
</svg>
