<svg width="24" height="24" viewBox="0 0 24 24" xmlns="http://www.w3.org/2000/svg">
  <defs>
    <linearGradient id="gradient1" x1="2.12767" y1="1" x2="30.7018" y2="17.5237" gradientUnits="userSpaceOnUse">
      <stop offset="0.259336" stop-color="#FFDB6E"/>
      <stop offset="1" stop-color="#FFBC5E"/>
    </linearGradient>
    <linearGradient id="gradient2" x1="1.59976" y1="8.08974e-07" x2="31.8368" y2="17.6727" gradientUnits="userSpaceOnUse">
      <stop offset="0.259336" stop-color="#FFDB6E"/>
      <stop offset="1" stop-color="#FFBC5E"/>
    </linearGradient>
  </defs>
  <path d="M13.383 4.076a6.5 6.5 0 0 0-6.887 3.95A5 5 0 0 0 7 18h3v-4a2 2 0 0 1-1.414-3.414l2-2a2 2 0 0 1 2.828 0l2 2A2 2 0 0 1 14 14v4h4a4 4 0 0 0 .988-7.876 6.5 6.5 0 0 0-5.605-6.048Z" fill="url(#gradient1)"/>
  <path d="M12.707 9.293a1 1 0 0 0-1.414 0l-2 2a1 1 0 1 0 1.414 1.414l.293-.293V19a1 1 0 1 0 2 0v-6.586l.293.293a1 1 0 0 0 1.414-1.414l-2-2Z" fill="url(#gradient2)"/>
</svg>
