<svg width="185" height="185" viewBox="0 0 185 185" fill="none" xmlns="http://www.w3.org/2000/svg">
  <!-- Background circle -->
  <circle cx="92.5" cy="92.5" r="92.5" fill="#F0F0F0"/>
  
  <!-- Dog face -->
  <path d="M92.5 35C63.067 35 35 63.067 35 92.5C35 121.933 63.067 150 92.5 150C121.933 150 150 121.933 150 92.5C150 63.067 121.933 35 92.5 35ZM92.5 10C133.415 10 170 46.585 170 87.5C170 128.415 133.415 165 92.5 165C51.585 165 15 128.415 15 87.5C15 46.585 51.585 10 92.5 10Z" fill="#F9C74F"/>
  
  <!-- Dog eyes -->
  <circle cx="73" cy="80" r="10" fill="#000"/>
  <circle cx="112" cy="80" r="10" fill="#000"/>
  
  <!-- Dog nose -->
  <circle cx="92.5" cy="110" r="8" fill="#000"/>
  
  <!-- Dog mouth -->
  <path d="M85 120C85 120 90 130 92.5 130C95 130 100 120 100 120" stroke="#000" stroke-width="2" fill="none"/>
</svg>
